# xmcd CD database file
# Copyright (C) 1993-1996 Ti Kan
#
# Track frame offsets:
# 150
# 13537
# 23440
# 33950
# 44057
# 56462
# 68842
# 79267
# 90310
# 102872
# 114492
# 127077
# 137592
# 150107
# 160742
# 174240
# 185225
# 197485
# 208732
# 220865
# 230550
# 244102
# 253752
# 267345
# 277260
# 288415
# 299670
#
# Disc length: 4139 seconds
#
# Revision: 0
# Processed by: cddbd v1.4b41PL1 Copyright (c) Steve Scherf et al.
# Submitted via: inCDius 1.1b5
#
DISCID=8710291b
DTITLE=Ray Price - Ray Price And The Cherokee Cowboys Disc 2
DYEAR=1900
DGENRE=
TTITLE0=The Price For Loving You
TTITLE1=That's What I Get For Loving You
TTITLE2=Cold Shoulder
TTITLE3=You Weren't Ashamed To Kiss Me Last Night
TTITLE4=The Wrong Side Of Town
TTITLE5=Time
TTITLE6=Start The Music
TTITLE7=Gone Again
TTITLE8=The Way You've Treated Me
TTITLE9=Time
TTITLE10=The Wrong Side Of Town
TTITLE11=Who Stole That Train
TTITLE12=Let Your Heart Decide
TTITLE13=You Always Get By
TTITLE14=Leave Her Alone
TTITLE15=The Wall Around Your Heart
TTITLE16=Release Me
TTITLE17=I'll Be There (If You Ever Want Me)
TTITLE18=The Last Letter
TTITLE19=Much To Young To Die
TTITLE20=I Love You So Much, I Let You Go
TTITLE21=I Could Love You More
TTITLE22=What If He Don't Love You
TTITLE23=If You Don't, Somebody Else Will
TTITLE24=I'm Alone Because I Love You
TTITLE25=Oh Yes, Darling
TTITLE26=One Broken Heart (Don't Mean A Thing)
EXTD=
EXTT0=
EXTT1=
EXTT2=
EXTT3=
EXTT4=
EXTT5=
EXTT6=
EXTT7=
EXTT8=
EXTT9=
EXTT10=
EXTT11=
EXTT12=
EXTT13=
EXTT14=
EXTT15=
EXTT16=
EXTT17=
EXTT18=
EXTT19=
EXTT20=
EXTT21=
EXTT22=
EXTT23=
EXTT24=
EXTT25=
EXTT26=
PLAYORDER=
